G04*
G04 #@! TF.GenerationSoftware,Altium Limited,Altium Designer,26.9.1 (10)*
G04*
G04 Layer_Physical_Order=2*
G04 Layer_Color=16711680*
G04 Board_Origin=0|0*
%FSLAX44Y44*%
%MOMM*%
G71*
G04*
G04 #@! TF.SameCoordinates,E7C527FA-F21E-43EA-A109-79D71A6B0E47*
G04*
G04*
G04 #@! TF.FilePolarity,Positive*
G04*
G01*
G75*
G04:AMPARAMS|DCode=22|XSize=1.6mm|YSize=1.6mm|CornerRadius=0.4mm|HoleSize=0mm|Usage=FLASHONLY|Rotation=180.000|XOffset=0mm|YOffset=0mm|HoleType=Round|Shape=RoundedRectangle|*
%AMROUNDEDRECTD22*
21,1,1.6000,0.8000,0,0,180.0*
21,1,0.8000,1.6000,0,0,180.0*
1,1,0.8000,-0.4000,0.4000*
1,1,0.8000,0.4000,0.4000*
1,1,0.8000,0.4000,-0.4000*
1,1,0.8000,-0.4000,-0.4000*
%
%ADD22ROUNDEDRECTD22*%
%ADD23C,1.6000*%
%ADD24C,0.6500*%
%ADD25O,2.4000X0.9000*%
%ADD26O,1.7000X0.9000*%
%ADD27C,0.2540*%
%ADD28C,0.5000*%
%ADD30C,0.6000*%
G36*
X347000Y3000D02*
X3000D01*
Y247000D01*
X347000D01*
Y3000D01*
D02*
G37*
%LPC*%
G36*
X288688Y220540D02*
X288570D01*
Y211270D01*
X297840D01*
Y211388D01*
X297122Y214068D01*
X295734Y216472D01*
X293772Y218434D01*
X291368Y219822D01*
X288688Y220540D01*
D02*
G37*
G36*
X286030D02*
X285912D01*
X283232Y219822D01*
X280828Y218434D01*
X278866Y216472D01*
X277478Y214068D01*
X276760Y211388D01*
Y211270D01*
X286030D01*
Y220540D01*
D02*
G37*
G36*
X316700Y220117D02*
X308700D01*
X306359Y219652D01*
X304374Y218326D01*
X303048Y216341D01*
X302582Y214000D01*
Y206000D01*
X303048Y203659D01*
X304374Y201674D01*
X306359Y200348D01*
X308700Y199883D01*
X316700D01*
X319041Y200348D01*
X321026Y201674D01*
X322352Y203659D01*
X322817Y206000D01*
Y214000D01*
X322352Y216341D01*
X321026Y218326D01*
X319041Y219652D01*
X316700Y220117D01*
D02*
G37*
G36*
X297840Y208730D02*
X288570D01*
Y199460D01*
X288688D01*
X291368Y200178D01*
X293772Y201566D01*
X295734Y203528D01*
X297122Y205932D01*
X297840Y208612D01*
Y208730D01*
D02*
G37*
G36*
X286030D02*
X276760D01*
Y208612D01*
X277478Y205932D01*
X278866Y203528D01*
X280828Y201566D01*
X283232Y200178D01*
X285912Y199460D01*
X286030D01*
Y208730D01*
D02*
G37*
G36*
X181270Y192970D02*
Y188770D01*
X185470D01*
X184697Y190638D01*
X183138Y192197D01*
X181270Y192970D01*
D02*
G37*
G36*
X178730D02*
X176862Y192197D01*
X175303Y190638D01*
X174530Y188770D01*
X178730D01*
Y192970D01*
D02*
G37*
G36*
X185470Y186230D02*
X181270D01*
Y182030D01*
X183138Y182803D01*
X184697Y184362D01*
X185470Y186230D01*
D02*
G37*
G36*
X178730D02*
X174530D01*
X175303Y184362D01*
X176862Y182803D01*
X178730Y182030D01*
Y186230D01*
D02*
G37*
G36*
X70995Y190000D02*
X69005D01*
X67168Y189239D01*
X65761Y187832D01*
X65000Y185995D01*
Y184005D01*
X65412Y183011D01*
Y174719D01*
X64486Y174078D01*
X62872Y173616D01*
X61850Y174399D01*
X60138Y175109D01*
X58300Y175351D01*
X52070D01*
Y168250D01*
X50800D01*
Y166980D01*
X36366D01*
X36441Y166412D01*
X37151Y164700D01*
X38279Y163229D01*
X39750Y162101D01*
X41462Y161391D01*
X41903Y161333D01*
X42813Y158651D01*
X42192Y158030D01*
X41359Y156020D01*
X47100D01*
Y153480D01*
X41359D01*
X42192Y151470D01*
X43544Y150118D01*
X42649Y149224D01*
X41850Y147294D01*
Y145206D01*
X42649Y143276D01*
X43925Y142000D01*
X42649Y140724D01*
X41850Y138794D01*
Y136706D01*
X42649Y134776D01*
X43925Y133500D01*
X42649Y132224D01*
X41850Y130294D01*
Y128206D01*
X42649Y126276D01*
X43925Y125000D01*
X42649Y123724D01*
X41850Y121794D01*
Y119706D01*
X42649Y117776D01*
X43925Y116500D01*
X42649Y115224D01*
X41850Y113294D01*
Y111206D01*
X42649Y109276D01*
X43925Y108000D01*
X42649Y106724D01*
X41850Y104794D01*
Y102706D01*
X42649Y100776D01*
X43544Y99882D01*
X42192Y98530D01*
X41359Y96520D01*
X47100D01*
Y93980D01*
X41359D01*
X42192Y91970D01*
X42813Y91349D01*
X41903Y88667D01*
X41462Y88609D01*
X39750Y87899D01*
X38279Y86771D01*
X37151Y85300D01*
X36441Y83588D01*
X36366Y83020D01*
X65233D01*
X65159Y83588D01*
X64449Y85300D01*
X63321Y86771D01*
X62822Y87154D01*
X63064Y90003D01*
X63065Y90004D01*
X63880Y90342D01*
X65508Y91970D01*
X66341Y93980D01*
X60600D01*
Y96520D01*
X66341D01*
X65508Y98530D01*
X64156Y99882D01*
X65051Y100776D01*
X65850Y102706D01*
Y104794D01*
X65051Y106724D01*
X63775Y108000D01*
X65051Y109276D01*
X65850Y111206D01*
Y113294D01*
X65051Y115224D01*
X63775Y116500D01*
X65051Y117776D01*
X65850Y119706D01*
Y121794D01*
X65051Y123724D01*
X63775Y125000D01*
X65051Y126276D01*
X65850Y128206D01*
Y130135D01*
X65875Y130324D01*
X67693Y132482D01*
X68151D01*
X69989Y133243D01*
X71395Y134650D01*
X72157Y136487D01*
Y138476D01*
X71936Y139009D01*
Y140137D01*
X73244Y141446D01*
X74239Y142934D01*
X74588Y144690D01*
Y183011D01*
X75000Y184005D01*
Y185995D01*
X74239Y187832D01*
X72832Y189239D01*
X70995Y190000D01*
D02*
G37*
G36*
X49530Y175351D02*
X43300D01*
X41462Y175109D01*
X39750Y174399D01*
X38279Y173271D01*
X37151Y171800D01*
X36441Y170088D01*
X36366Y169520D01*
X49530D01*
Y175351D01*
D02*
G37*
G36*
X21000D02*
X18270D01*
Y169520D01*
X27933D01*
X27859Y170088D01*
X27149Y171800D01*
X26021Y173271D01*
X24550Y174399D01*
X22838Y175109D01*
X21000Y175351D01*
D02*
G37*
G36*
X15730D02*
X13000D01*
X11162Y175109D01*
X9450Y174399D01*
X7979Y173271D01*
X6851Y171800D01*
X6141Y170088D01*
X6066Y169520D01*
X15730D01*
Y175351D01*
D02*
G37*
G36*
X286270Y167970D02*
Y163770D01*
X290470D01*
X289697Y165638D01*
X288138Y167197D01*
X286270Y167970D01*
D02*
G37*
G36*
X283730D02*
X281862Y167197D01*
X280303Y165638D01*
X279530Y163770D01*
X283730D01*
Y167970D01*
D02*
G37*
G36*
X86270D02*
Y163770D01*
X90470D01*
X89697Y165638D01*
X88138Y167197D01*
X86270Y167970D01*
D02*
G37*
G36*
X83730D02*
X81862Y167197D01*
X80303Y165638D01*
X79530Y163770D01*
X83730D01*
Y167970D01*
D02*
G37*
G36*
X27933Y166980D02*
X18270D01*
Y161149D01*
X21000D01*
X22838Y161391D01*
X24550Y162101D01*
X26021Y163229D01*
X27149Y164700D01*
X27859Y166412D01*
X27933Y166980D01*
D02*
G37*
G36*
X15730D02*
X6066D01*
X6141Y166412D01*
X6851Y164700D01*
X7979Y163229D01*
X9450Y162101D01*
X11162Y161391D01*
X13000Y161149D01*
X15730D01*
Y166980D01*
D02*
G37*
G36*
X180995Y167500D02*
X179005D01*
X177168Y166739D01*
X176263Y165834D01*
X152500D01*
X151224Y165580D01*
X150142Y164858D01*
X135285Y150000D01*
X134005D01*
X132168Y149239D01*
X130761Y147832D01*
X130000Y145995D01*
Y144005D01*
X130761Y142168D01*
X132168Y140761D01*
X134005Y140000D01*
X135995D01*
X137832Y140761D01*
X139239Y142168D01*
X140000Y144005D01*
Y145285D01*
X153881Y159166D01*
X176263D01*
X177168Y158261D01*
X179005Y157500D01*
X180995D01*
X182832Y158261D01*
X184239Y159668D01*
X185000Y161505D01*
Y163495D01*
X184239Y165332D01*
X182832Y166739D01*
X180995Y167500D01*
D02*
G37*
G36*
X290470Y161230D02*
X286270D01*
Y157030D01*
X288138Y157803D01*
X289697Y159362D01*
X290470Y161230D01*
D02*
G37*
G36*
X283730D02*
X279530D01*
X280303Y159362D01*
X281862Y157803D01*
X283730Y157030D01*
Y161230D01*
D02*
G37*
G36*
X90470D02*
X86270D01*
Y157030D01*
X88138Y157803D01*
X89697Y159362D01*
X90470Y161230D01*
D02*
G37*
G36*
X83730D02*
X79530D01*
X80303Y159362D01*
X81862Y157803D01*
X83730Y157030D01*
Y161230D01*
D02*
G37*
G36*
X166270Y135470D02*
Y131270D01*
X170470D01*
X169697Y133138D01*
X168138Y134697D01*
X166270Y135470D01*
D02*
G37*
G36*
X163730D02*
X161862Y134697D01*
X160303Y133138D01*
X159530Y131270D01*
X163730D01*
Y135470D01*
D02*
G37*
G36*
X286270Y127970D02*
Y123770D01*
X290470D01*
X289697Y125638D01*
X288138Y127197D01*
X286270Y127970D01*
D02*
G37*
G36*
X283730D02*
X281862Y127197D01*
X280303Y125638D01*
X279530Y123770D01*
X283730D01*
Y127970D01*
D02*
G37*
G36*
X170470Y128730D02*
X159530D01*
X160303Y126862D01*
X160506Y126659D01*
X161652Y125000D01*
X160506Y123341D01*
X160303Y123138D01*
X159530Y121270D01*
X170470D01*
X169697Y123138D01*
X169494Y123341D01*
X168348Y125000D01*
X169494Y126659D01*
X169697Y126862D01*
X170470Y128730D01*
D02*
G37*
G36*
X290470Y121230D02*
X286270D01*
Y117030D01*
X288138Y117803D01*
X289697Y119362D01*
X290470Y121230D01*
D02*
G37*
G36*
X283730D02*
X279530D01*
X280303Y119362D01*
X281862Y117803D01*
X283730Y117030D01*
Y121230D01*
D02*
G37*
G36*
X170470Y118730D02*
X166270D01*
Y114530D01*
X168138Y115303D01*
X169697Y116862D01*
X170470Y118730D01*
D02*
G37*
G36*
X163730D02*
X159530D01*
X160303Y116862D01*
X161862Y115303D01*
X163730Y114530D01*
Y118730D01*
D02*
G37*
G36*
X111270Y110470D02*
Y106270D01*
X115470D01*
X114697Y108138D01*
X113138Y109697D01*
X111270Y110470D01*
D02*
G37*
G36*
X108730D02*
X106862Y109697D01*
X105303Y108138D01*
X104530Y106270D01*
X108730D01*
Y110470D01*
D02*
G37*
G36*
X115470Y103730D02*
X111270D01*
Y99530D01*
X113138Y100303D01*
X114697Y101862D01*
X115470Y103730D01*
D02*
G37*
G36*
X108730D02*
X104530D01*
X105303Y101862D01*
X106862Y100303D01*
X108730Y99530D01*
Y103730D01*
D02*
G37*
G36*
X21000Y88851D02*
X18270D01*
Y83020D01*
X27933D01*
X27859Y83588D01*
X27149Y85300D01*
X26021Y86771D01*
X24550Y87899D01*
X22838Y88609D01*
X21000Y88851D01*
D02*
G37*
G36*
X15730D02*
X13000D01*
X11162Y88609D01*
X9450Y87899D01*
X7979Y86771D01*
X6851Y85300D01*
X6141Y83588D01*
X6066Y83020D01*
X15730D01*
Y88851D01*
D02*
G37*
G36*
X65233Y80480D02*
X52070D01*
Y74649D01*
X58300D01*
X60138Y74891D01*
X61850Y75601D01*
X63321Y76729D01*
X64449Y78200D01*
X65159Y79912D01*
X65233Y80480D01*
D02*
G37*
G36*
X49530D02*
X36366D01*
X36441Y79912D01*
X37151Y78200D01*
X38279Y76729D01*
X39750Y75601D01*
X41462Y74891D01*
X43300Y74649D01*
X49530D01*
Y80480D01*
D02*
G37*
G36*
X27933D02*
X18270D01*
Y74649D01*
X21000D01*
X22838Y74891D01*
X24550Y75601D01*
X26021Y76729D01*
X27149Y78200D01*
X27859Y79912D01*
X27933Y80480D01*
D02*
G37*
G36*
X15730D02*
X6066D01*
X6141Y79912D01*
X6851Y78200D01*
X7979Y76729D01*
X9450Y75601D01*
X11162Y74891D01*
X13000Y74649D01*
X15730D01*
Y80480D01*
D02*
G37*
G36*
X86270Y57970D02*
Y53770D01*
X90470D01*
X89697Y55638D01*
X88138Y57197D01*
X86270Y57970D01*
D02*
G37*
G36*
X83730D02*
X81862Y57197D01*
X80303Y55638D01*
X79530Y53770D01*
X83730D01*
Y57970D01*
D02*
G37*
G36*
X90470Y51230D02*
X86270D01*
Y47030D01*
X88138Y47803D01*
X89697Y49362D01*
X90470Y51230D01*
D02*
G37*
G36*
X83730D02*
X79530D01*
X80303Y49362D01*
X81862Y47803D01*
X83730Y47030D01*
Y51230D01*
D02*
G37*
G36*
X323770Y47970D02*
Y43770D01*
X327970D01*
X327197Y45638D01*
X325638Y47197D01*
X323770Y47970D01*
D02*
G37*
G36*
X321230D02*
X319362Y47197D01*
X317803Y45638D01*
X317030Y43770D01*
X321230D01*
Y47970D01*
D02*
G37*
G36*
X327970Y41230D02*
X323770D01*
Y37030D01*
X325638Y37803D01*
X327197Y39362D01*
X327970Y41230D01*
D02*
G37*
G36*
X321230D02*
X317030D01*
X317803Y39362D01*
X319362Y37803D01*
X321230Y37030D01*
Y41230D01*
D02*
G37*
%LPD*%
D22*
X312700Y210000D02*
D03*
D23*
X287300D02*
D03*
D24*
X60600Y137750D02*
D03*
Y129250D02*
D03*
Y120750D02*
D03*
Y112250D02*
D03*
X47100D02*
D03*
Y120750D02*
D03*
Y129250D02*
D03*
Y137750D02*
D03*
Y146250D02*
D03*
Y103750D02*
D03*
X60600D02*
D03*
Y146250D02*
D03*
X47100Y154750D02*
D03*
Y95250D02*
D03*
X60600D02*
D03*
Y154750D02*
D03*
D25*
X50800Y81750D02*
D03*
Y168250D02*
D03*
D26*
X17000Y81750D02*
D03*
Y168250D02*
D03*
D27*
X135000Y145000D02*
X152500Y162500D01*
X180000D01*
D28*
X70000Y144690D02*
Y185000D01*
X67348Y142038D02*
X70000Y144690D01*
X67348Y137673D02*
Y142038D01*
X67157Y137482D02*
X67348Y137673D01*
D30*
X322500Y42500D02*
D03*
X285000Y122500D02*
D03*
Y162500D02*
D03*
X110000Y105000D02*
D03*
X165000Y120000D02*
D03*
Y130000D02*
D03*
X85000Y52500D02*
D03*
Y162500D02*
D03*
X180000Y187500D02*
D03*
X70000Y185000D02*
D03*
X67157Y137482D02*
D03*
X135000Y145000D02*
D03*
X180000Y162500D02*
D03*
M02*
