G04*
G04 #@! TF.GenerationSoftware,Altium Limited,Altium Designer,26.9.1 (10)*
G04*
G04 Layer_Color=65535*
G04 Board_Origin=0|0*
%FSLAX44Y44*%
%MOMM*%
G71*
G04*
G04 #@! TF.SameCoordinates,E7C527FA-F21E-43EA-A109-79D71A6B0E47*
G04*
G04*
G04 #@! TF.FilePolarity,Positive*
G04*
G01*
G75*
%ADD10C,0.2500*%
%ADD11C,0.1250*%
%ADD12C,0.2000*%
%ADD13C,0.1500*%
D10*
X332650Y210000D02*
G03*
X332650Y210000I-1250J0D01*
G01*
X195000Y125000D02*
G03*
X195000Y125000I-1250J0D01*
G01*
X335250Y55000D02*
G03*
X335250Y55000I-1250J0D01*
G01*
D11*
X151000Y137000D02*
G03*
X151000Y137000I-625J0D01*
G01*
D12*
X75000Y154750D02*
G03*
X75000Y154750I-1000J0D01*
G01*
X259500Y134000D02*
Y156000D01*
X280500Y134000D02*
Y156000D01*
X289500Y134000D02*
Y156000D01*
X310500Y134000D02*
Y156000D01*
X273100Y223450D02*
X326900D01*
Y196550D02*
Y223450D01*
X273100Y196550D02*
X326900D01*
X273100D02*
Y223450D01*
X184000Y167709D02*
Y192291D01*
X206000Y167709D02*
Y192291D01*
X154000Y167709D02*
Y192291D01*
X176000Y167709D02*
Y192291D01*
X151000Y167709D02*
Y192291D01*
X129000Y167709D02*
Y192291D01*
X125500Y169000D02*
Y191000D01*
X104500Y169000D02*
Y191000D01*
X96000Y167709D02*
Y192291D01*
X74000Y167709D02*
Y192291D01*
X96000Y57709D02*
Y82291D01*
X74000Y57709D02*
Y82291D01*
X95500Y114000D02*
Y136000D01*
X74500Y114000D02*
Y136000D01*
X120500Y114000D02*
Y136000D01*
X99500Y114000D02*
Y136000D01*
X124500Y114000D02*
Y136000D01*
X145500Y114000D02*
Y136000D01*
X198500Y146500D02*
X241500D01*
Y103500D02*
Y146500D01*
X198500Y103500D02*
X241500D01*
X198500D02*
Y146500D01*
X306750Y48250D02*
X313250D01*
X306750Y61750D02*
X313250D01*
X257709Y44000D02*
X282291D01*
X257709Y66000D02*
X282291D01*
X289500Y94000D02*
Y116000D01*
X310500Y94000D02*
Y116000D01*
X259500Y94000D02*
Y116000D01*
X280500Y94000D02*
Y116000D01*
X-400Y169700D02*
X3100D01*
X-400Y80300D02*
Y169700D01*
Y80300D02*
X3100D01*
X28700Y169700D02*
X35500D01*
X28700Y80300D02*
X35500D01*
D13*
X162000Y136125D02*
X168000D01*
X162000Y113875D02*
X168000D01*
X267084Y169166D02*
X266251Y169999D01*
X264585D01*
X263752Y169166D01*
Y165834D01*
X264585Y165001D01*
X266251D01*
X267084Y165834D01*
X268750Y165001D02*
X270417D01*
X269583D01*
Y169999D01*
X268750Y169166D01*
X275415Y165001D02*
Y169999D01*
X272916Y167500D01*
X276248D01*
X297084Y169166D02*
X296251Y169999D01*
X294585D01*
X293752Y169166D01*
Y165834D01*
X294585Y165001D01*
X296251D01*
X297084Y165834D01*
X298750Y165001D02*
X300417D01*
X299583D01*
Y169999D01*
X298750Y169166D01*
X306248Y169999D02*
X302916D01*
Y167500D01*
X304582Y168333D01*
X305415D01*
X306248Y167500D01*
Y165834D01*
X305415Y165001D01*
X303749D01*
X302916Y165834D01*
X294168Y227501D02*
Y232499D01*
X296667D01*
X297500Y231666D01*
Y230000D01*
X296667Y229167D01*
X294168D01*
X299166Y227501D02*
X300832D01*
X299999D01*
Y232499D01*
X299166Y231666D01*
X188752Y202501D02*
Y207499D01*
X191251D01*
X192084Y206666D01*
Y205000D01*
X191251Y204167D01*
X188752D01*
X190418D02*
X192084Y202501D01*
X193750D02*
X195417D01*
X194583D01*
Y207499D01*
X193750Y206666D01*
X197916Y207499D02*
X201248D01*
Y206666D01*
X197916Y203334D01*
Y202501D01*
X158752D02*
Y207499D01*
X161251D01*
X162084Y206666D01*
Y205000D01*
X161251Y204167D01*
X158752D01*
X160418D02*
X162084Y202501D01*
X163750D02*
X165417D01*
X164583D01*
Y207499D01*
X163750Y206666D01*
X171248Y207499D02*
X169582Y206666D01*
X167916Y205000D01*
Y203334D01*
X168749Y202501D01*
X170415D01*
X171248Y203334D01*
Y204167D01*
X170415Y205000D01*
X167916D01*
X133752Y197501D02*
Y202499D01*
X136251D01*
X137084Y201666D01*
Y200000D01*
X136251Y199167D01*
X133752D01*
X135418D02*
X137084Y197501D01*
X138750D02*
X140416D01*
X139584D01*
Y202499D01*
X138750Y201666D01*
X146248Y202499D02*
X142916D01*
Y200000D01*
X144582Y200833D01*
X145415D01*
X146248Y200000D01*
Y198334D01*
X145415Y197501D01*
X143749D01*
X142916Y198334D01*
X112917Y201666D02*
X112084Y202499D01*
X110418D01*
X109585Y201666D01*
Y198334D01*
X110418Y197501D01*
X112084D01*
X112917Y198334D01*
X114584Y197501D02*
X116250D01*
X115416D01*
Y202499D01*
X114584Y201666D01*
X118749Y197501D02*
X120415D01*
X119582D01*
Y202499D01*
X118749Y201666D01*
X81668Y197501D02*
Y202499D01*
X84167D01*
X85000Y201666D01*
Y200000D01*
X84167Y199167D01*
X81668D01*
X83334D02*
X85000Y197501D01*
X86666D02*
X88332D01*
X87499D01*
Y202499D01*
X86666Y201666D01*
X80835Y87501D02*
Y92499D01*
X83334D01*
X84167Y91666D01*
Y90000D01*
X83334Y89167D01*
X80835D01*
X82501D02*
X84167Y87501D01*
X89165D02*
X85833D01*
X89165Y90833D01*
Y91666D01*
X88332Y92499D01*
X86666D01*
X85833Y91666D01*
X84167Y146666D02*
X83334Y147499D01*
X81668D01*
X80835Y146666D01*
Y143334D01*
X81668Y142501D01*
X83334D01*
X84167Y143334D01*
X89165Y147499D02*
X87499Y146666D01*
X85833Y145000D01*
Y143334D01*
X86666Y142501D01*
X88332D01*
X89165Y143334D01*
Y144167D01*
X88332Y145000D01*
X85833D01*
X109167Y146666D02*
X108334Y147499D01*
X106668D01*
X105835Y146666D01*
Y143334D01*
X106668Y142501D01*
X108334D01*
X109167Y143334D01*
X113332Y142501D02*
Y147499D01*
X110833Y145000D01*
X114165D01*
X132084Y156666D02*
X131251Y157499D01*
X129585D01*
X128752Y156666D01*
Y153334D01*
X129585Y152501D01*
X131251D01*
X132084Y153334D01*
X133750Y152501D02*
X135416D01*
X134584D01*
Y157499D01*
X133750Y156666D01*
X137916D02*
X138749Y157499D01*
X140415D01*
X141248Y156666D01*
Y153334D01*
X140415Y152501D01*
X138749D01*
X137916Y153334D01*
Y156666D01*
X160835Y144999D02*
Y140834D01*
X161668Y140001D01*
X163334D01*
X164167Y140834D01*
Y144999D01*
X165833Y144166D02*
X166666Y144999D01*
X168332D01*
X169165Y144166D01*
Y143333D01*
X168332Y142500D01*
X169165Y141667D01*
Y140834D01*
X168332Y140001D01*
X166666D01*
X165833Y140834D01*
Y141667D01*
X166666Y142500D01*
X165833Y143333D01*
Y144166D01*
X166666Y142500D02*
X168332D01*
X216668Y154999D02*
Y150001D01*
X220000D01*
X221666D02*
X223332D01*
X222499D01*
Y154999D01*
X221666Y154166D01*
X306668Y74999D02*
Y70001D01*
X309167D01*
X310000Y70834D01*
Y74166D01*
X309167Y74999D01*
X306668D01*
X311666Y70001D02*
X313332D01*
X312499D01*
Y74999D01*
X311666Y74166D01*
X265835Y70001D02*
Y74999D01*
X268334D01*
X269167Y74166D01*
Y72500D01*
X268334Y71667D01*
X265835D01*
X267501D02*
X269167Y70001D01*
X270833Y74166D02*
X271666Y74999D01*
X273332D01*
X274165Y74166D01*
Y73333D01*
X273332Y72500D01*
X272499D01*
X273332D01*
X274165Y71667D01*
Y70834D01*
X273332Y70001D01*
X271666D01*
X270833Y70834D01*
X297084Y126666D02*
X296251Y127499D01*
X294585D01*
X293752Y126666D01*
Y123334D01*
X294585Y122501D01*
X296251D01*
X297084Y123334D01*
X298750Y122501D02*
X300417D01*
X299583D01*
Y127499D01*
X298750Y126666D01*
X302916Y127499D02*
X306248D01*
Y126666D01*
X302916Y123334D01*
Y122501D01*
X267084Y126666D02*
X266251Y127499D01*
X264585D01*
X263752Y126666D01*
Y123334D01*
X264585Y122501D01*
X266251D01*
X267084Y123334D01*
X268750Y122501D02*
X270417D01*
X269583D01*
Y127499D01*
X268750Y126666D01*
X276248Y127499D02*
X274582Y126666D01*
X272916Y125000D01*
Y123334D01*
X273749Y122501D01*
X275415D01*
X276248Y123334D01*
Y124167D01*
X275415Y125000D01*
X272916D01*
X32500Y184999D02*
X30834D01*
X31667D01*
Y180834D01*
X30834Y180001D01*
X30001D01*
X29168Y180834D01*
X34166Y180001D02*
X35832D01*
X34999D01*
Y184999D01*
X34166Y184166D01*
M02*
