G04*
G04 #@! TF.GenerationSoftware,Altium Limited,Altium Designer,26.9.1 (10)*
G04*
G04 Layer_Color=8421504*
G04 Board_Origin=0|0*
%FSLAX44Y44*%
%MOMM*%
G71*
G04*
G04 #@! TF.SameCoordinates,E7C527FA-F21E-43EA-A109-79D71A6B0E47*
G04*
G04*
G04 #@! TF.FilePolarity,Positive*
G04*
G01*
G75*
%ADD14R,1.3500X0.9500*%
%ADD15R,1.3098X0.9061*%
%ADD16O,0.8000X0.2500*%
%ADD17R,0.4786X1.2786*%
%ADD18R,0.9800X3.4000*%
%ADD19R,1.1000X1.2500*%
%ADD20R,0.9061X1.3098*%
D14*
X270000Y137500D02*
D03*
Y152500D02*
D03*
X300000Y137500D02*
D03*
Y152500D02*
D03*
X115000Y187500D02*
D03*
Y172500D02*
D03*
X85000Y132500D02*
D03*
Y117500D02*
D03*
X110000Y132500D02*
D03*
Y117500D02*
D03*
X135000D02*
D03*
Y132500D02*
D03*
X300000Y97500D02*
D03*
Y112500D02*
D03*
X270000Y97500D02*
D03*
Y112500D02*
D03*
D15*
X195000Y172239D02*
D03*
Y187761D02*
D03*
X165000Y172239D02*
D03*
Y187761D02*
D03*
X140000Y172239D02*
D03*
Y187761D02*
D03*
X85000D02*
D03*
Y172239D02*
D03*
Y77761D02*
D03*
Y62239D02*
D03*
D16*
X154500Y132500D02*
D03*
Y127500D02*
D03*
X175500D02*
D03*
Y122500D02*
D03*
Y117500D02*
D03*
X154500Y122500D02*
D03*
X175500Y132500D02*
D03*
X154500Y117500D02*
D03*
D17*
X165000Y125000D02*
D03*
D18*
X208150D02*
D03*
X231850D02*
D03*
D19*
X297500Y55000D02*
D03*
X322500D02*
D03*
D20*
X262239D02*
D03*
X277761D02*
D03*
M02*
