M48
;Layer_Color=9474304
;FILE_FORMAT=4:4
METRIC,LZ
;TYPE=PLATED
T01F00S00C0.3000
T02F00S00C0.4000
T04F00S00C1.1000
%
T01
X00085Y000525
X0011Y00105
X00135Y00145
X00165Y0013
Y0012
X0018Y001625
Y001875
X0007Y00185
X00085Y001625
X00067157Y00137482
X00285Y001225
Y001625
X003225Y000425
T02
X000471Y0009525
Y0010375
Y0011225
Y0012075
Y0012925
Y0013775
Y0014625
Y0015475
X000606
Y0014625
Y0013775
Y0012925
Y0012075
Y0011225
Y0010375
Y0009525
T04
X002873Y0021
X003127
M30
