G04*
G04 #@! TF.GenerationSoftware,Altium Limited,Altium Designer,26.9.1 (10)*
G04*
G04 Layer_Physical_Order=1*
G04 Layer_Color=255*
G04 Board_Origin=0|0*
%FSLAX44Y44*%
%MOMM*%
G71*
G04*
G04 #@! TF.SameCoordinates,E7C527FA-F21E-43EA-A109-79D71A6B0E47*
G04*
G04*
G04 #@! TF.FilePolarity,Positive*
G04*
G01*
G75*
%ADD14R,1.3500X0.9500*%
%ADD15R,1.3098X0.9061*%
%ADD16O,0.8000X0.2500*%
%ADD18R,0.9800X3.4000*%
%ADD19R,1.1000X1.2500*%
%ADD20R,0.9061X1.3098*%
%ADD21R,0.9000X1.7000*%
G04:AMPARAMS|DCode=22|XSize=1.6mm|YSize=1.6mm|CornerRadius=0.4mm|HoleSize=0mm|Usage=FLASHONLY|Rotation=180.000|XOffset=0mm|YOffset=0mm|HoleType=Round|Shape=RoundedRectangle|*
%AMROUNDEDRECTD22*
21,1,1.6000,0.8000,0,0,180.0*
21,1,0.8000,1.6000,0,0,180.0*
1,1,0.8000,-0.4000,0.4000*
1,1,0.8000,0.4000,0.4000*
1,1,0.8000,0.4000,-0.4000*
1,1,0.8000,-0.4000,-0.4000*
%
%ADD22ROUNDEDRECTD22*%
%ADD23C,1.6000*%
%ADD24C,0.6500*%
%ADD25O,2.4000X0.9000*%
%ADD26O,1.7000X0.9000*%
%ADD27C,0.2540*%
%ADD28C,0.5000*%
%ADD29C,0.3000*%
%ADD30C,0.6000*%
G36*
X347000Y3000D02*
X3000D01*
Y247000D01*
X347000D01*
Y3000D01*
D02*
G37*
%LPC*%
G36*
X288688Y220540D02*
X288570D01*
Y211270D01*
X297840D01*
Y211388D01*
X297122Y214068D01*
X295734Y216472D01*
X293772Y218434D01*
X291368Y219822D01*
X288688Y220540D01*
D02*
G37*
G36*
X286030D02*
X285912D01*
X283232Y219822D01*
X280828Y218434D01*
X278866Y216472D01*
X277478Y214068D01*
X276760Y211388D01*
Y211270D01*
X286030D01*
Y220540D01*
D02*
G37*
G36*
X316700Y220117D02*
X308700D01*
X306359Y219652D01*
X304374Y218326D01*
X303048Y216341D01*
X302582Y214000D01*
Y206000D01*
X302727Y205274D01*
X273498Y176045D01*
X272168Y175780D01*
X271010Y175007D01*
X240072Y144069D01*
X235419D01*
Y166940D01*
X235147Y168305D01*
X234373Y169463D01*
X205522Y198314D01*
X204364Y199088D01*
X202999Y199360D01*
X150049D01*
X148683Y199088D01*
X147526Y198314D01*
X143502Y194291D01*
X131451D01*
Y191069D01*
X123750D01*
Y194250D01*
X106250D01*
Y180750D01*
X106250D01*
Y179250D01*
X106250D01*
Y165750D01*
X123750D01*
Y168931D01*
X131451D01*
Y165709D01*
X148549D01*
Y165709D01*
X150931Y165328D01*
Y135651D01*
X150482Y135561D01*
X149407Y134843D01*
X148689Y133768D01*
X148436Y132500D01*
X148689Y131232D01*
X148763Y131121D01*
X147988Y129265D01*
X145321Y128675D01*
X143750Y130246D01*
Y139250D01*
X139607D01*
X138861Y141790D01*
X139239Y142168D01*
X140000Y144005D01*
Y145995D01*
X139239Y147832D01*
X137832Y149239D01*
X135995Y150000D01*
X134005D01*
X132168Y149239D01*
X130761Y147832D01*
X130000Y145995D01*
Y144005D01*
X130761Y142168D01*
X131139Y141790D01*
X130393Y139250D01*
X126250D01*
Y137088D01*
X118750D01*
Y139250D01*
X101250D01*
Y137088D01*
X93750D01*
Y139250D01*
X79245D01*
Y140589D01*
X78895Y142344D01*
X77901Y143833D01*
X72526Y149207D01*
X71038Y150202D01*
X69282Y150551D01*
X67877D01*
X66180Y153091D01*
X66341Y153480D01*
X60600D01*
Y156020D01*
X66341D01*
X65508Y158030D01*
X63880Y159658D01*
X63065Y159996D01*
X63064Y159997D01*
X62822Y162846D01*
X63321Y163229D01*
X64449Y164700D01*
X65159Y166412D01*
X65233Y166980D01*
X36366D01*
X36441Y166412D01*
X37151Y164700D01*
X38279Y163229D01*
X39750Y162101D01*
X41462Y161391D01*
X41903Y161333D01*
X42813Y158651D01*
X42192Y158030D01*
X41359Y156020D01*
X47100D01*
Y153480D01*
X41359D01*
X42192Y151470D01*
X43544Y150118D01*
X42649Y149224D01*
X41850Y147294D01*
Y145206D01*
X42649Y143276D01*
X43925Y142000D01*
X42649Y140724D01*
X41850Y138794D01*
Y136706D01*
X42649Y134776D01*
X43925Y133500D01*
X42649Y132224D01*
X41850Y130294D01*
Y128206D01*
X42649Y126276D01*
X43925Y125000D01*
X42649Y123724D01*
X41850Y121794D01*
Y119706D01*
X42649Y117776D01*
X43925Y116500D01*
X42649Y115224D01*
X41850Y113294D01*
Y113070D01*
X41781Y113023D01*
X32777Y104019D01*
X32003Y102862D01*
X31732Y101496D01*
Y78436D01*
X32003Y77071D01*
X32777Y75913D01*
X37463Y71227D01*
X38621Y70453D01*
X39986Y70181D01*
X73732D01*
X75911Y69309D01*
X75911Y67642D01*
Y63509D01*
X85000D01*
X94089D01*
Y68914D01*
X94089Y69310D01*
X93549Y71626D01*
X93549Y71849D01*
Y84291D01*
X76451D01*
Y77319D01*
X66834D01*
X65137Y79859D01*
X65159Y79912D01*
X65233Y80480D01*
X50800D01*
Y83020D01*
X65233D01*
X65159Y83588D01*
X64449Y85300D01*
X63321Y86771D01*
X62822Y87154D01*
X63064Y90003D01*
X63065Y90004D01*
X63880Y90342D01*
X65508Y91970D01*
X66341Y93980D01*
X60600D01*
Y96520D01*
X66341D01*
X65925Y97525D01*
X65539Y98593D01*
X66592Y100793D01*
X73244Y107446D01*
X73905Y108435D01*
X74748Y109264D01*
X76209Y110210D01*
X76929Y110210D01*
X83730D01*
Y117500D01*
X85000D01*
Y118770D01*
X94290D01*
Y123434D01*
X94290Y124790D01*
X94154Y125372D01*
X96060Y127912D01*
X98940D01*
X100846Y125372D01*
X100710Y124790D01*
X100710Y123434D01*
Y118770D01*
X110000D01*
X119290D01*
Y123434D01*
X119290Y124790D01*
X119154Y125372D01*
X121060Y127912D01*
X124837D01*
X125528Y126470D01*
X125710Y124790D01*
X125710Y124790D01*
X125710Y124790D01*
Y118770D01*
X135000D01*
Y117500D01*
X136270D01*
Y110210D01*
X144290D01*
Y116911D01*
X144743Y117335D01*
X146968Y117452D01*
X148004Y116907D01*
X148180Y116021D01*
X149018Y114768D01*
X150271Y113930D01*
X151750Y113636D01*
X153230D01*
Y117500D01*
X155770D01*
Y113636D01*
X157250D01*
X158729Y113930D01*
X158774Y113960D01*
X163730D01*
Y125000D01*
Y136040D01*
X158069D01*
Y165709D01*
X173168D01*
X175138Y163827D01*
X175000Y163495D01*
Y161505D01*
X175761Y159668D01*
X177168Y158261D01*
X179005Y157500D01*
X180995D01*
X182832Y158261D01*
X183842Y159271D01*
X185716Y158858D01*
X186382Y158493D01*
Y138962D01*
X182503Y135083D01*
X180982Y135232D01*
X179729Y136070D01*
X178250Y136364D01*
X176770D01*
Y132500D01*
X174230D01*
Y136364D01*
X172750D01*
X171271Y136070D01*
X171226Y136040D01*
X166270D01*
Y125000D01*
Y113960D01*
X172040D01*
Y113960D01*
X172400Y114256D01*
X172750Y114186D01*
X178250D01*
X179518Y114439D01*
X180593Y115157D01*
X181311Y116232D01*
X181358Y116467D01*
X182749Y117790D01*
X184033Y118104D01*
X185000Y117912D01*
X186756Y118261D01*
X188244Y119256D01*
X189401Y120412D01*
X201250D01*
Y106000D01*
X215050D01*
Y144000D01*
X201250D01*
Y129588D01*
X190695D01*
X189642Y132128D01*
X192474Y134960D01*
X193248Y136118D01*
X193519Y137483D01*
Y165709D01*
X203549D01*
Y178769D01*
X203549D01*
Y181231D01*
X203549D01*
X203549Y181309D01*
Y186875D01*
X205896Y187847D01*
X228281Y165462D01*
Y144000D01*
X224950D01*
Y106000D01*
X228281D01*
Y87408D01*
X228553Y86042D01*
X229327Y84885D01*
X255709Y58502D01*
Y46451D01*
X268690D01*
X268769Y46451D01*
X271231D01*
X271310Y46451D01*
X284291D01*
Y51666D01*
X290000D01*
Y46750D01*
X305000D01*
Y63250D01*
X290000D01*
Y58334D01*
X284291D01*
Y63549D01*
X271310D01*
X271231Y63549D01*
X268769D01*
X268690Y63549D01*
X260756D01*
X235419Y88886D01*
Y105931D01*
X242522D01*
X253477Y94977D01*
X254634Y94203D01*
X256000Y93931D01*
X261250D01*
Y90750D01*
X278750D01*
Y93931D01*
X291250D01*
Y90750D01*
X308750D01*
Y102894D01*
X309290Y105210D01*
X309290Y106566D01*
Y111230D01*
X300000D01*
X290710D01*
Y106566D01*
X290710Y105210D01*
X291083Y103609D01*
X289943Y101557D01*
X289454Y101069D01*
X280546D01*
X280057Y101557D01*
X278917Y103609D01*
X279290Y105210D01*
X279290Y106566D01*
Y111230D01*
X270000D01*
X260710D01*
Y106566D01*
X260710Y105210D01*
X261083Y103609D01*
X259943Y101557D01*
X259853Y101468D01*
X257079D01*
X246523Y112023D01*
X245366Y112797D01*
X244000Y113069D01*
X238750D01*
Y121431D01*
X255500D01*
X256866Y121703D01*
X258023Y122477D01*
X266297Y130750D01*
X278750D01*
Y133931D01*
X291250D01*
Y130750D01*
X308750D01*
Y142894D01*
X309290Y145210D01*
X309290Y146566D01*
Y151230D01*
X300000D01*
X290710D01*
Y146566D01*
X290710Y145210D01*
X291083Y143609D01*
X289943Y141557D01*
X289454Y141069D01*
X278750D01*
Y144250D01*
X279290Y145210D01*
X279290D01*
Y151230D01*
X270000D01*
Y152500D01*
X268730D01*
Y160938D01*
X268234Y162137D01*
X275019Y168922D01*
X276349Y169186D01*
X277507Y169960D01*
X307640Y200093D01*
X308700Y199883D01*
X316700D01*
X319041Y200348D01*
X321026Y201674D01*
X322352Y203659D01*
X322817Y206000D01*
Y214000D01*
X322352Y216341D01*
X321026Y218326D01*
X319041Y219652D01*
X316700Y220117D01*
D02*
G37*
G36*
X297840Y208730D02*
X288570D01*
Y199460D01*
X288688D01*
X291368Y200178D01*
X293772Y201566D01*
X295734Y203528D01*
X297122Y205932D01*
X297840Y208612D01*
Y208730D01*
D02*
G37*
G36*
X286030D02*
X276760D01*
Y208612D01*
X277478Y205932D01*
X278866Y203528D01*
X280828Y201566D01*
X283232Y200178D01*
X285912Y199460D01*
X286030D01*
Y208730D01*
D02*
G37*
G36*
X93549Y194291D02*
X76451D01*
Y192349D01*
X73031D01*
X71276Y192000D01*
X69787Y191005D01*
X68624Y189842D01*
X67168Y189239D01*
X65761Y187832D01*
X65000Y185995D01*
Y184005D01*
X65761Y182168D01*
X67168Y180761D01*
X69005Y180000D01*
X70995D01*
X72832Y180761D01*
X74857Y180643D01*
X75911Y179309D01*
X75911Y178914D01*
Y173509D01*
X85000D01*
X94089D01*
Y178914D01*
X94089Y179309D01*
X93549Y181626D01*
X93549Y181849D01*
Y194291D01*
D02*
G37*
G36*
X58300Y175351D02*
X52070D01*
Y169520D01*
X65233D01*
X65159Y170088D01*
X64449Y171800D01*
X63321Y173271D01*
X61850Y174399D01*
X60138Y175109D01*
X58300Y175351D01*
D02*
G37*
G36*
X49530D02*
X43300D01*
X41462Y175109D01*
X39750Y174399D01*
X38279Y173271D01*
X37151Y171800D01*
X36441Y170088D01*
X36366Y169520D01*
X49530D01*
Y175351D01*
D02*
G37*
G36*
X21000D02*
X18270D01*
Y169520D01*
X27933D01*
X27859Y170088D01*
X27149Y171800D01*
X26021Y173271D01*
X24550Y174399D01*
X22838Y175109D01*
X21000Y175351D01*
D02*
G37*
G36*
X15730D02*
X13000D01*
X11162Y175109D01*
X9450Y174399D01*
X7979Y173271D01*
X6851Y171800D01*
X6141Y170088D01*
X6066Y169520D01*
X15730D01*
Y175351D01*
D02*
G37*
G36*
X286270Y167970D02*
Y163770D01*
X290470D01*
X289697Y165638D01*
X288138Y167197D01*
X286270Y167970D01*
D02*
G37*
G36*
X283730D02*
X281862Y167197D01*
X280303Y165638D01*
X279530Y163770D01*
X283730D01*
Y167970D01*
D02*
G37*
G36*
X94089Y170969D02*
X85000D01*
X75911D01*
Y165169D01*
X78413D01*
X79348Y163770D01*
X90652D01*
X91587Y165169D01*
X94089D01*
Y170969D01*
D02*
G37*
G36*
X27933Y166980D02*
X18270D01*
Y161149D01*
X21000D01*
X22838Y161391D01*
X24550Y162101D01*
X26021Y163229D01*
X27149Y164700D01*
X27859Y166412D01*
X27933Y166980D01*
D02*
G37*
G36*
X15730D02*
X6066D01*
X6141Y166412D01*
X6851Y164700D01*
X7979Y163229D01*
X9450Y162101D01*
X11162Y161391D01*
X13000Y161149D01*
X15730D01*
Y166980D01*
D02*
G37*
G36*
X283730Y161230D02*
X279242D01*
X277377Y159790D01*
X271270D01*
Y153770D01*
X279290D01*
Y156783D01*
X281830Y157835D01*
X281862Y157803D01*
X283730Y157030D01*
Y161230D01*
D02*
G37*
G36*
X90470D02*
X86270D01*
Y157030D01*
X88138Y157803D01*
X89697Y159362D01*
X90470Y161230D01*
D02*
G37*
G36*
X83730D02*
X79530D01*
X80303Y159362D01*
X81862Y157803D01*
X83730Y157030D01*
Y161230D01*
D02*
G37*
G36*
X309290Y159790D02*
X301270D01*
Y153770D01*
X309290D01*
Y159790D01*
D02*
G37*
G36*
X290758Y161230D02*
X286270D01*
Y157030D01*
X288138Y157803D01*
X288170Y157835D01*
X290710Y156783D01*
Y153770D01*
X298730D01*
Y159790D01*
X292623D01*
X290758Y161230D01*
D02*
G37*
G36*
X286270Y127970D02*
Y123770D01*
X290470D01*
X289697Y125638D01*
X288138Y127197D01*
X286270Y127970D01*
D02*
G37*
G36*
X283730D02*
X281862Y127197D01*
X280303Y125638D01*
X279530Y123770D01*
X283730D01*
Y127970D01*
D02*
G37*
G36*
Y121230D02*
X279242D01*
X277377Y119790D01*
X271270D01*
Y113770D01*
X279290D01*
Y116783D01*
X281830Y117835D01*
X281862Y117803D01*
X283730Y117030D01*
Y121230D01*
D02*
G37*
G36*
X309290Y119790D02*
X301270D01*
Y113770D01*
X309290D01*
Y119790D01*
D02*
G37*
G36*
X290758Y121230D02*
X286270D01*
Y117030D01*
X288138Y117803D01*
X288170Y117835D01*
X290710Y116783D01*
Y113770D01*
X298730D01*
Y119790D01*
X292623D01*
X290758Y121230D01*
D02*
G37*
G36*
X268730Y119790D02*
X260710D01*
Y113770D01*
X268730D01*
Y119790D01*
D02*
G37*
G36*
X133730Y116230D02*
X125710D01*
Y110210D01*
X133730D01*
Y116230D01*
D02*
G37*
G36*
X94290D02*
X86270D01*
Y110210D01*
X94290D01*
Y116230D01*
D02*
G37*
G36*
X119290D02*
X110000D01*
X100710D01*
Y110210D01*
X103783D01*
X104412Y109354D01*
X105110Y107670D01*
X104530Y106270D01*
X115470D01*
X114890Y107670D01*
X115588Y109354D01*
X116217Y110210D01*
X119290D01*
Y116230D01*
D02*
G37*
G36*
X115470Y103730D02*
X111270D01*
Y99530D01*
X113138Y100303D01*
X114697Y101862D01*
X115470Y103730D01*
D02*
G37*
G36*
X108730D02*
X104530D01*
X105303Y101862D01*
X106862Y100303D01*
X108730Y99530D01*
Y103730D01*
D02*
G37*
G36*
X21000Y88851D02*
X18270D01*
Y83020D01*
X27933D01*
X27859Y83588D01*
X27149Y85300D01*
X26021Y86771D01*
X24550Y87899D01*
X22838Y88609D01*
X21000Y88851D01*
D02*
G37*
G36*
X15730D02*
X13000D01*
X11162Y88609D01*
X9450Y87899D01*
X7979Y86771D01*
X6851Y85300D01*
X6141Y83588D01*
X6066Y83020D01*
X15730D01*
Y88851D01*
D02*
G37*
G36*
X27933Y80480D02*
X18270D01*
Y74649D01*
X21000D01*
X22838Y74891D01*
X24550Y75601D01*
X26021Y76729D01*
X27149Y78200D01*
X27859Y79912D01*
X27933Y80480D01*
D02*
G37*
G36*
X15730D02*
X6066D01*
X6141Y79912D01*
X6851Y78200D01*
X7979Y76729D01*
X9450Y75601D01*
X11162Y74891D01*
X13000Y74649D01*
X15730D01*
Y80480D01*
D02*
G37*
G36*
X330540Y63790D02*
X323770D01*
Y56270D01*
X330540D01*
Y63790D01*
D02*
G37*
G36*
X321230D02*
X314460D01*
Y56270D01*
X321230D01*
Y63790D01*
D02*
G37*
G36*
X94089Y60969D02*
X85000D01*
X75911D01*
Y55169D01*
X78413D01*
X79348Y53770D01*
X90652D01*
X91587Y55169D01*
X94089D01*
Y60969D01*
D02*
G37*
G36*
X90470Y51230D02*
X86270D01*
Y47030D01*
X88138Y47803D01*
X89697Y49362D01*
X90470Y51230D01*
D02*
G37*
G36*
X83730D02*
X79530D01*
X80303Y49362D01*
X81862Y47803D01*
X83730Y47030D01*
Y51230D01*
D02*
G37*
G36*
X330540Y53730D02*
X322500D01*
X314460D01*
Y46210D01*
X315291D01*
X316921Y43770D01*
X328079D01*
X329709Y46210D01*
X330540D01*
Y53730D01*
D02*
G37*
G36*
X327970Y41230D02*
X323770D01*
Y37030D01*
X325638Y37803D01*
X327197Y39362D01*
X327970Y41230D01*
D02*
G37*
G36*
X321230D02*
X317030D01*
X317803Y39362D01*
X319362Y37803D01*
X321230Y37030D01*
Y41230D01*
D02*
G37*
%LPD*%
D14*
X270000Y137500D02*
D03*
Y152500D02*
D03*
X300000Y137500D02*
D03*
Y152500D02*
D03*
X115000Y187500D02*
D03*
Y172500D02*
D03*
X85000Y132500D02*
D03*
Y117500D02*
D03*
X110000Y132500D02*
D03*
Y117500D02*
D03*
X135000D02*
D03*
Y132500D02*
D03*
X300000Y97500D02*
D03*
Y112500D02*
D03*
X270000Y97500D02*
D03*
Y112500D02*
D03*
D15*
X195000Y172239D02*
D03*
Y187761D02*
D03*
X165000Y172239D02*
D03*
Y187761D02*
D03*
X140000Y172239D02*
D03*
Y187761D02*
D03*
X85000D02*
D03*
Y172239D02*
D03*
Y77761D02*
D03*
Y62239D02*
D03*
D16*
X154500Y132500D02*
D03*
Y127500D02*
D03*
X175500D02*
D03*
Y122500D02*
D03*
Y117500D02*
D03*
X154500Y122500D02*
D03*
X175500Y132500D02*
D03*
X154500Y117500D02*
D03*
D18*
X208150Y125000D02*
D03*
X231850D02*
D03*
D19*
X297500Y55000D02*
D03*
X322500D02*
D03*
D20*
X262239D02*
D03*
X277761D02*
D03*
D21*
X165000Y125000D02*
D03*
D22*
X312700Y210000D02*
D03*
D23*
X287300D02*
D03*
D24*
X60600Y137750D02*
D03*
Y129250D02*
D03*
Y120750D02*
D03*
Y112250D02*
D03*
X47100D02*
D03*
Y120750D02*
D03*
Y129250D02*
D03*
Y137750D02*
D03*
Y146250D02*
D03*
Y103750D02*
D03*
X60600D02*
D03*
Y146250D02*
D03*
X47100Y154750D02*
D03*
Y95250D02*
D03*
X60600D02*
D03*
Y154750D02*
D03*
D25*
X50800Y81750D02*
D03*
Y168250D02*
D03*
D26*
X17000Y81750D02*
D03*
Y168250D02*
D03*
D27*
X165261Y187500D02*
X180000D01*
X165000Y187761D02*
X165261Y187500D01*
X135000Y132500D02*
Y145000D01*
X180000Y162500D02*
Y174780D01*
X192981Y187761D01*
X195000D01*
X277761Y55000D02*
X297500D01*
D28*
X72929Y132500D02*
X74657Y134228D01*
Y140589D01*
X69282Y145963D02*
X74657Y140589D01*
X60887Y145963D02*
X69282D01*
X60600Y146250D02*
X60887Y145963D01*
X73031Y187761D02*
X85000D01*
X70271Y185000D02*
X73031Y187761D01*
X70000Y185000D02*
X70271D01*
X66888Y137750D02*
X67157Y137482D01*
X60600Y137750D02*
X66888D01*
X72929Y132500D02*
X85000D01*
X70000Y129571D02*
X72929Y132500D01*
X70000Y110690D02*
Y129571D01*
X63347Y104037D02*
X70000Y110690D01*
X60887Y104037D02*
X63347D01*
X60600Y103750D02*
X60887Y104037D01*
X47100Y103750D02*
X60600D01*
X47100Y146250D02*
X60600D01*
X187500Y125000D02*
X208150D01*
X185000Y122500D02*
X187500Y125000D01*
X85000Y117500D02*
X110000D01*
X135000D01*
X85000Y132500D02*
X110000D01*
X135000D01*
D29*
X82981Y77761D02*
X85000D01*
X78970Y73750D02*
X82981Y77761D01*
X39986Y73750D02*
X78970D01*
X35300Y78436D02*
X39986Y73750D01*
X35300Y78436D02*
Y101496D01*
X44304Y110500D01*
X44403D01*
X46153Y112250D01*
X47100D01*
X154500Y132500D02*
Y170239D01*
X152500Y172239D02*
X154500Y170239D01*
X152500Y172239D02*
X165000D01*
X140000D02*
X152500D01*
X115000Y172500D02*
X139739D01*
X175500Y122500D02*
X185000D01*
X146450D02*
X154500D01*
X140250Y128700D02*
X146450Y122500D01*
X231850Y125000D02*
Y166940D01*
Y125000D02*
Y137100D01*
X202999Y195791D02*
X231850Y166940D01*
X150049Y195791D02*
X202999D01*
X189951Y137483D02*
Y169209D01*
X192981Y172239D01*
X180217Y127750D02*
X189951Y137483D01*
X192981Y172239D02*
X195000D01*
X140000Y187761D02*
X142019D01*
X150049Y195791D01*
X312500Y210000D02*
X312700D01*
X274984Y172483D02*
X312500Y210000D01*
X273534Y172483D02*
X274984D01*
X241550Y140500D02*
X273534Y172483D01*
X235250Y140500D02*
X241550D01*
X231850Y137100D02*
X235250Y140500D01*
X175750Y127750D02*
X180217D01*
X137000Y132500D02*
X140250Y129250D01*
Y128700D02*
Y129250D01*
X139739Y172500D02*
X140000Y172239D01*
X139739Y187500D02*
X140000Y187761D01*
X115000Y187500D02*
X139739D01*
X310250Y68000D02*
Y144250D01*
X322500Y55000D02*
Y55750D01*
X310250Y68000D02*
X322500Y55750D01*
X270000Y112500D02*
X300000D01*
X302000D01*
X310250Y120750D01*
X302000Y152500D02*
X310250Y144250D01*
X300000Y152500D02*
X302000D01*
X270000D02*
X300000D01*
X270000Y137500D02*
X300000D01*
X268000D02*
X270000D01*
X255500Y125000D02*
X268000Y137500D01*
X231850Y125000D02*
X255500D01*
X262239Y55000D02*
Y57019D01*
X231850Y87408D02*
X262239Y57019D01*
X231850Y87408D02*
Y112900D01*
X270000Y97500D02*
X300000D01*
X256000D02*
X270000D01*
X244000Y109500D02*
X256000Y97500D01*
X235250Y109500D02*
X244000D01*
X231850Y112900D02*
X235250Y109500D01*
X135000Y117500D02*
X135000Y117500D01*
X154500D01*
D30*
X322500Y42500D02*
D03*
X285000Y122500D02*
D03*
Y162500D02*
D03*
X110000Y105000D02*
D03*
X165000Y120000D02*
D03*
Y130000D02*
D03*
X85000Y52500D02*
D03*
Y162500D02*
D03*
X180000Y187500D02*
D03*
X70000Y185000D02*
D03*
X67157Y137482D02*
D03*
X135000Y145000D02*
D03*
X180000Y162500D02*
D03*
M02*
