G04*
G04 #@! TF.GenerationSoftware,Altium Limited,Altium Designer,26.9.1 (10)*
G04*
G04 Layer_Color=16711935*
G04 Board_Origin=0|0*
%FSLAX44Y44*%
%MOMM*%
G71*
G04*
G04 #@! TF.SameCoordinates,E7C527FA-F21E-43EA-A109-79D71A6B0E47*
G04*
G04*
G04 #@! TF.FilePolarity,Negative*
G04*
G01*
G75*
G04:AMPARAMS|DCode=22|XSize=1.6mm|YSize=1.6mm|CornerRadius=0.4mm|HoleSize=0mm|Usage=FLASHONLY|Rotation=180.000|XOffset=0mm|YOffset=0mm|HoleType=Round|Shape=RoundedRectangle|*
%AMROUNDEDRECTD22*
21,1,1.6000,0.8000,0,0,180.0*
21,1,0.8000,1.6000,0,0,180.0*
1,1,0.8000,-0.4000,0.4000*
1,1,0.8000,0.4000,0.4000*
1,1,0.8000,0.4000,-0.4000*
1,1,0.8000,-0.4000,-0.4000*
%
%ADD22ROUNDEDRECTD22*%
%ADD23C,1.6000*%
%ADD24C,0.6500*%
%ADD25O,2.4000X0.9000*%
%ADD26O,1.7000X0.9000*%
D22*
X312700Y210000D02*
D03*
D23*
X287300D02*
D03*
D24*
X60600Y137750D02*
D03*
Y129250D02*
D03*
Y120750D02*
D03*
Y112250D02*
D03*
X47100D02*
D03*
Y120750D02*
D03*
Y129250D02*
D03*
Y137750D02*
D03*
Y146250D02*
D03*
Y103750D02*
D03*
X60600D02*
D03*
Y146250D02*
D03*
X47100Y154750D02*
D03*
Y95250D02*
D03*
X60600D02*
D03*
Y154750D02*
D03*
D25*
X50800Y81750D02*
D03*
Y168250D02*
D03*
D26*
X17000Y81750D02*
D03*
Y168250D02*
D03*
M02*
